<svg version="1.1" id="Layer_1" xmlns="http://www.w3.org/2000/svg" xmlns:xlink="http://www.w3.org/1999/xlink" x="0px" y="0px"
	 width="100%" viewBox="0 0 1024 560" enable-background="new 0 0 1024 560" xml:space="preserve">
<path fill="#000000" opacity="1.000000" stroke="none" 
	d="
M656.531372,1.000000 
	C649.917603,3.527930 642.399170,3.893131 635.085144,5.095653 
	C581.147766,13.963762 531.839111,34.427814 486.018616,63.817932 
	C479.475098,68.015076 472.773285,71.991104 466.823273,76.772339 
	C467.405060,79.293388 469.227966,80.015366 470.677338,81.035576 
	C500.243347,101.847832 529.867126,122.578560 559.352478,143.504211 
	C563.036804,146.118958 565.570618,146.282745 569.451172,143.612946 
	C587.942749,130.890869 611.814087,140.490005 615.521362,161.922852 
	C617.435791,172.990753 613.456970,182.059982 604.928711,188.864609 
	C595.819580,196.132690 585.356201,197.321701 574.857422,192.425995 
	C570.430725,190.361801 568.197876,191.300476 565.140625,194.477249 
	C541.337097,219.211655 517.397827,243.816025 493.395142,268.357513 
	C490.822113,270.988312 490.056793,272.845947 492.226562,276.382111 
	C500.661591,290.129333 497.586731,305.127045 484.517487,314.769165 
	C481.993866,316.631042 481.455139,318.120514 482.709961,320.922211 
	C490.198608,337.642395 497.581604,354.410126 504.939728,371.188354 
	C505.988495,373.579865 507.451965,374.647888 510.195160,374.847595 
	C556.599121,378.226166 599.791992,392.486938 640.929321,413.651794 
	C643.000793,414.717560 645.137146,415.660248 647.265930,416.609497 
	C647.690063,416.798615 648.217590,416.755829 648.699646,416.820282 
	C650.258545,415.474945 649.474060,413.657562 649.776306,412.101776 
	C650.760681,407.034393 655.080261,403.596069 660.174011,403.904572 
	C665.125427,404.204376 668.861145,407.789825 669.238403,412.900940 
	C669.458740,415.885315 669.311096,418.897614 669.310242,421.897369 
	C669.307800,429.879700 669.514221,430.152649 678.230286,432.967712 
	C679.015381,426.447479 678.550171,420.038422 678.575989,413.821289 
	C676.623535,412.387878 675.336914,415.253571 673.647339,413.977814 
	C672.871033,410.163116 678.727905,403.989288 682.384033,404.813019 
	C684.434753,405.275085 684.337463,406.846832 684.350403,408.309967 
	C684.422302,416.466187 684.626343,424.628357 684.384460,432.776611 
	C684.289429,435.978058 684.981995,437.989319 687.873596,439.678253 
	C723.397644,460.427368 757.796814,483.110382 794.726562,501.440887 
	C836.540161,522.195557 880.219299,537.582642 925.790710,547.687683 
	C948.041260,552.621521 970.391113,556.947937 992.991882,559.932861 
	C993.465759,559.995422 993.905151,560.318115 994.680298,560.759766 
	C888.645752,561.000000 782.291565,561.000000 675.422974,560.679443 
	C674.159790,556.072815 673.117554,551.940125 673.267456,547.401917 
	C673.428772,542.516785 671.957092,537.357056 668.061096,533.807922 
	C663.142517,529.327209 660.783386,522.897034 663.628601,517.291016 
	C664.749695,515.081970 663.929810,513.928101 663.189758,512.563538 
	C664.106323,511.749451 665.399597,512.969543 665.883484,511.602264 
	C664.500793,510.471008 662.219360,509.244934 662.373657,508.626984 
	C663.387085,504.567841 659.765442,504.318298 658.000183,502.459625 
	C654.507996,498.782837 648.295471,498.669983 646.627258,492.094971 
	C645.835449,488.974121 641.384949,485.805023 638.576660,483.690308 
	C625.571472,473.896912 611.165405,466.390289 594.891541,463.168976 
	C592.990295,462.792664 590.332031,461.708038 590.238098,459.915283 
	C590.127441,457.802338 591.814575,455.630493 592.545898,453.425690 
	C593.035706,451.949158 596.362854,450.791779 592.997314,448.944153 
	C594.374268,447.944000 595.456116,450.129089 596.901367,448.769928 
	C591.990540,446.340240 598.438538,446.306030 597.216064,444.537872 
	C599.308716,444.949860 600.674133,446.422089 602.258850,445.739410 
	C604.558044,443.136871 608.603516,442.771698 610.518372,439.655548 
	C610.727234,439.315582 612.583496,439.987946 613.960999,440.243744 
	C613.486450,438.931000 612.018677,438.762115 611.964233,437.341248 
	C611.700806,430.471649 608.716675,425.333069 602.182251,422.520355 
	C596.932129,420.260468 593.031006,416.156891 588.649597,412.659180 
	C581.899902,407.270844 575.586304,401.185242 566.550598,399.199677 
	C561.797852,398.155273 556.963989,398.621307 552.253235,397.256836 
	C546.828064,395.685394 541.208923,395.211914 535.482117,395.998383 
	C530.872498,396.631470 526.291016,396.148254 521.720215,394.832733 
	C520.227295,394.403076 518.241028,392.588257 516.653625,394.285309 
	C514.906067,396.153748 516.987244,397.987091 517.380981,399.829071 
	C517.551086,400.624817 518.012451,401.359772 518.352112,402.117554 
	C527.533630,422.597351 536.845581,443.020416 545.790894,463.602783 
	C547.594666,467.753113 549.472534,469.208405 554.184875,468.719879 
	C571.331543,466.942444 584.769958,478.655029 585.454834,495.405457 
	C586.148865,512.378906 572.832703,525.523376 555.151123,525.318665 
	C539.129639,525.133179 525.988586,511.227966 527.134766,495.232788 
	C527.385315,491.736938 526.087830,490.500092 523.248779,489.494812 
	C491.232452,478.158051 459.224762,466.796448 427.252747,455.335663 
	C424.238556,454.255157 422.623810,454.805481 420.701447,457.474976 
	C411.361023,470.445648 393.964691,474.097107 380.818146,465.607391 
	C377.068634,463.186035 374.987457,464.199860 372.242706,466.610748 
	C345.965698,489.691406 319.664032,512.744263 293.275452,535.697083 
	C290.889069,537.772705 290.848480,539.422424 292.091522,542.094421 
	C294.891357,548.112915 296.098694,554.424072 294.000000,561.000000 
	C275.312439,561.000000 256.624878,561.000000 237.353088,560.603882 
	C235.019333,553.926514 235.263580,547.055420 239.210815,542.488464 
	C246.299728,534.286621 242.630692,528.838806 236.685120,523.035400 
	C236.331329,522.690125 236.073593,522.246826 235.768845,521.850830 
	C217.590942,498.229767 199.435211,474.591522 181.197052,451.017059 
	C179.524994,448.855774 178.400360,445.505493 174.210922,447.307373 
	C161.890213,452.606537 151.090179,449.581055 141.818588,440.495544 
	C139.405930,438.131287 137.697495,438.763885 135.326920,440.146576 
	C101.247475,460.023834 67.148705,479.868103 33.007023,499.638184 
	C30.143011,501.296631 29.356237,502.955231 29.980156,506.432526 
	C33.225872,524.522034 19.189819,540.579529 1.000000,540.000000 
	C1.000000,521.312439 1.000000,502.624878 1.364427,483.604706 
	C9.911339,484.056122 17.576181,486.392822 23.126032,492.716309 
	C25.836699,495.804840 27.840340,495.280792 30.738489,493.582733 
	C42.091103,486.931061 53.522686,480.414276 64.916199,473.832275 
	C87.267189,460.920105 109.578987,447.939362 131.999176,435.148560 
	C135.043167,433.411957 135.849487,431.676147 134.766830,428.375824 
	C133.513977,424.556549 133.333130,420.522369 133.996506,416.510681 
	C135.146652,409.555298 133.418961,406.595764 126.564499,405.053802 
	C120.542358,403.699097 114.555077,402.295868 108.833954,399.966888 
	C102.717102,397.476837 95.765961,398.927551 89.832260,396.286987 
	C73.967216,389.226929 57.180508,392.610474 40.831726,391.052002 
	C33.597912,390.362457 24.979406,395.504791 18.960142,387.260223 
	C18.683998,386.881989 17.432892,386.655243 17.185673,386.904114 
	C15.040305,389.063721 13.501905,386.870972 11.883730,386.163086 
	C9.636894,385.180206 7.606775,383.677155 6.202328,383.582153 
	C3.363455,384.375916 3.113595,386.798798 1.000000,387.000000 
	C1.000000,373.979095 1.000000,360.958221 1.320698,347.592102 
	C6.589799,350.000366 11.580450,352.681519 16.469404,355.536743 
	C19.052492,357.045349 21.108027,356.722168 23.141577,354.607330 
	C27.183725,350.403687 31.240498,346.209717 35.423649,342.148132 
	C37.337959,340.289459 37.481804,338.664764 35.943501,336.515289 
	C27.491179,324.704803 30.864624,306.122986 44.649879,297.606628 
	C47.564850,295.805786 48.143879,293.763824 46.863384,290.514954 
	C37.336346,266.342743 27.929604,242.122879 18.568144,217.885895 
	C17.415123,214.900711 15.579387,213.918472 12.459056,214.101776 
	C8.654493,214.325272 4.820988,214.056076 1.000000,214.000000 
	C1.000000,207.312363 1.000000,200.624710 1.342224,193.455750 
	C4.863665,192.432739 5.701313,195.281998 7.782581,196.796844 
	C5.882638,197.334030 4.384213,197.757690 2.740288,198.222488 
	C4.907298,202.181671 7.322238,204.282471 11.731695,201.607132 
	C10.845414,198.927002 10.052201,196.426147 9.192324,193.948425 
	C7.142307,188.041321 5.546454,187.669891 1.000000,192.000000 
	C1.000000,170.645767 1.000000,149.291550 1.416433,127.376541 
	C11.108797,127.152695 18.473295,131.213074 23.786707,138.688156 
	C25.688721,141.363983 27.324125,141.981766 30.361197,140.685028 
	C64.466537,126.122955 98.601929,111.630791 132.780411,97.241341 
	C135.953217,95.905563 137.064072,94.323746 136.363739,90.839241 
	C134.089249,79.522453 138.466599,70.623802 147.203705,63.703495 
	C153.184540,58.966320 153.189011,59.158302 150.690842,51.674702 
	C145.059662,34.805695 139.555725,17.894201 134.000000,1.000000 
	C135.714355,1.000000 137.428711,1.000000 139.687103,1.363268 
	C145.949799,18.596443 151.774780,35.431599 157.307861,52.362156 
	C158.594940,56.300495 160.370377,57.950619 164.733170,57.773384 
	C174.962845,57.357811 183.347427,61.614944 189.055130,70.026085 
	C191.612015,73.794029 193.794022,74.377731 197.952988,73.028191 
	C228.519943,63.109512 259.179199,53.475815 289.782867,43.669559 
	C306.908417,38.182068 323.988251,32.551582 341.074280,26.941587 
	C343.040161,26.296106 345.938110,25.973421 345.297028,23.010410 
	C343.540649,14.892565 346.748383,7.971845 350.000000,1.000000 
	C365.687561,1.000000 381.375122,1.000000 397.728455,1.284874 
	C404.388763,9.731407 405.437073,18.666601 401.880219,27.969353 
	C400.590820,31.341709 401.316986,33.023544 404.109192,34.930790 
	C416.187439,43.180923 428.246735,51.468235 440.078247,60.065022 
	C444.140930,63.016972 446.778503,62.656097 450.192688,59.092213 
	C464.673370,43.976643 479.358276,29.055820 494.047607,14.141640 
	C497.719910,10.413129 501.014191,6.616908 501.000000,1.000000 
	C552.687561,1.000000 604.375122,1.000000 656.531372,1.000000 
M351.647034,99.253563 
	C355.825073,82.987000 359.940948,66.704002 364.232910,50.467552 
	C365.105927,47.165001 364.534790,45.200569 361.235992,43.751389 
	C357.564880,42.138680 353.990784,39.889969 351.895874,36.448368 
	C349.062714,31.793890 345.846710,31.735050 341.068848,33.288776 
	C295.007874,48.267494 248.897278,63.095718 202.723312,77.722099 
	C197.084549,79.508270 192.986664,81.329193 194.104324,88.316101 
	C194.398163,90.153137 193.642288,92.311028 192.895630,94.127197 
	C191.647781,97.162521 192.858658,98.690552 195.445160,100.082169 
	C230.332352,118.852554 265.191071,137.675842 300.048279,156.501923 
	C302.009430,157.561127 304.076202,158.383041 306.255768,157.834152 
	C311.613770,156.484756 317.276276,156.481857 322.145691,152.981033 
	C325.194122,150.789352 329.221527,149.671402 333.050171,149.847092 
	C337.327271,150.043320 338.893127,148.001099 339.833740,144.341980 
	C343.634033,129.557983 347.564392,114.807411 351.647034,99.253563 
M257.077942,432.479340 
	C253.593918,432.215515 250.105820,431.996277 246.626556,431.680145 
	C230.754608,430.237915 214.880447,428.816620 199.017731,427.278107 
	C194.530884,426.842926 191.408432,427.799103 190.004913,432.725983 
	C189.308014,435.172363 187.603775,437.560242 185.777451,439.401489 
	C183.206802,441.993134 183.445892,443.923248 185.580276,446.645355 
	C206.329605,473.108093 227.000885,499.632263 247.604828,526.208374 
	C249.528183,528.689209 251.097855,529.304871 254.214813,528.041077 
	C263.734680,524.181213 273.244934,524.593567 281.839233,530.495422 
	C285.597931,533.076599 287.958527,532.280334 290.906494,529.572083 
	C298.139069,522.927734 305.519287,516.442444 312.902435,509.964142 
	C331.548248,493.603485 350.233032,477.287262 368.883911,460.932312 
	C370.073090,459.889557 372.176392,458.932037 371.207428,457.006256 
	C369.175049,452.966919 367.613739,448.809021 366.465210,444.445587 
	C366.018219,442.747589 364.237427,442.578430 362.750885,442.438690 
	C344.380737,440.711487 326.006989,439.022766 307.635529,437.309265 
	C291.084320,435.765625 274.534882,434.203674 257.077942,432.479340 
M423.177063,250.307526 
	C430.032623,256.123169 436.952026,261.865997 443.708832,267.794189 
	C446.050995,269.849121 447.726807,270.169739 450.596191,268.293182 
	C459.855103,262.237915 469.960052,261.085327 480.012573,265.887878 
	C484.106140,267.843567 486.155426,266.827179 488.893555,263.971649 
	C511.132599,240.778976 533.501526,217.710892 555.810852,194.585495 
	C558.349792,191.953690 561.589539,189.575745 563.023254,186.409470 
	C564.718506,182.665680 559.889221,180.251846 559.140930,176.735550 
	C559.107117,176.576736 558.976868,176.438873 558.940796,176.280060 
	C558.172546,172.897568 555.998108,171.909714 552.674622,172.111603 
	C544.204651,172.626144 535.721680,172.931473 527.242615,173.290314 
	C509.954163,174.022018 492.661743,174.666336 475.376648,175.468201 
	C441.974945,177.017715 408.579773,178.709045 375.176086,180.212845 
	C365.948761,180.628250 365.940674,180.420227 362.690491,188.806839 
	C362.450043,189.427216 362.292633,190.128311 361.893951,190.631180 
	C358.508118,194.901779 360.097504,197.734848 363.952545,200.905045 
	C383.625336,217.082932 403.095978,233.506653 423.177063,250.307526 
M555.353638,149.139877 
	C524.927246,127.529556 494.465576,105.968422 464.125458,84.237602 
	C460.866028,81.903053 458.604065,81.953186 455.312714,84.161133 
	C437.881378,95.854652 420.380493,107.452469 402.678772,118.730377 
	C396.840363,122.450050 391.711395,126.825867 386.899048,131.678574 
	C380.093475,138.541183 373.632050,145.779205 366.469025,152.242188 
	C360.945312,157.226105 358.047821,161.487854 362.745117,169.001266 
	C364.964325,172.550903 366.590576,174.045380 370.580383,173.823486 
	C389.199219,172.787949 407.824738,171.858261 426.453949,171.026688 
	C460.228638,169.519028 494.008484,168.126495 527.784241,166.642883 
	C535.767212,166.292236 543.739136,165.518051 551.722778,165.404541 
	C558.680054,165.305634 557.693359,159.388718 559.544373,155.582184 
	C561.296631,151.978653 557.763611,151.187485 555.353638,149.139877 
M84.517082,124.116920 
	C68.569435,130.836212 52.657608,137.642609 36.653225,144.223923 
	C31.579861,146.310165 26.429659,147.869720 29.082546,155.177109 
	C29.386547,156.014481 29.056767,157.185333 28.760941,158.119232 
	C27.454826,162.242554 28.999804,164.469513 32.926395,166.199966 
	C56.192436,176.453232 79.344337,186.965134 102.580322,197.287201 
	C108.221375,199.793106 114.021919,201.897202 120.433846,200.727249 
	C138.243835,197.477570 156.354050,196.502350 174.219482,193.665482 
	C177.294464,193.177200 179.055252,192.027710 178.185272,188.325241 
	C177.085831,183.646271 176.512863,178.844147 175.697174,174.097824 
	C172.598740,156.068680 169.473663,138.044067 166.409607,120.009087 
	C165.829453,116.594360 164.770950,114.446381 160.541626,114.223549 
	C153.790482,113.867844 147.934021,110.630905 143.765884,105.398590 
	C140.575836,101.394104 137.671875,101.652191 133.514420,103.451523 
	C117.480553,110.390884 101.319206,117.035675 84.517082,124.116920 
M170.556061,261.999268 
	C168.561325,260.046143 166.834671,258.729401 163.694733,260.705750 
	C139.593506,275.875732 115.389763,290.883575 91.151970,305.834991 
	C88.133232,307.697174 87.344910,309.536469 88.351685,313.115723 
	C90.547043,320.920624 89.983299,328.687042 85.358978,335.636749 
	C83.570114,338.325165 84.114937,339.994415 86.263306,342.028778 
	C104.891136,359.668396 123.473267,377.356445 142.002441,395.099609 
	C143.934341,396.949524 145.446335,397.747009 147.991837,396.024536 
	C151.620789,393.568909 155.858337,392.302429 160.180328,391.856903 
	C163.307297,391.534576 164.327072,390.127167 164.771332,387.173309 
	C170.307449,350.364532 175.843674,313.554657 181.705933,276.797089 
	C182.639725,270.941986 182.278732,266.953094 175.742859,265.354218 
	C174.066925,264.944214 172.659698,263.435852 170.556061,261.999268 
M472.003448,464.378967 
	C488.764801,470.365784 505.582550,476.201660 522.252502,482.432953 
	C527.142334,484.260803 530.835571,485.056885 533.575012,479.354248 
	C534.513000,477.401611 536.638000,475.765656 538.590515,474.609650 
	C542.056091,472.557709 541.730652,470.197235 540.292114,467.080566 
	C535.971558,457.719696 531.806396,448.286499 527.635071,438.857452 
	C520.374695,422.445862 513.053711,406.059784 505.969757,389.572113 
	C503.255219,383.254059 498.950043,380.066315 491.993896,379.919220 
	C479.104095,379.646729 466.473145,380.508911 454.168365,384.963165 
	C449.871094,386.518768 446.280945,388.174316 444.208893,392.434937 
	C442.626434,395.688812 440.303711,396.438843 436.837799,394.669800 
	C429.001526,390.670013 423.095612,392.865601 419.435913,400.792786 
	C417.622986,404.719818 416.076965,408.797607 413.940765,412.539215 
	C412.216614,415.559204 413.053070,417.220062 415.531311,419.147552 
	C423.391296,425.260895 426.453461,433.722626 425.864868,443.325348 
	C425.639435,447.003479 426.830688,448.324799 429.894257,449.392944 
	C443.715118,454.211700 457.488007,459.167908 472.003448,464.378967 
M160.954483,233.375931 
	C161.877457,230.304062 159.385605,229.687485 157.516159,228.834183 
	C141.926620,221.718460 126.305008,214.673050 110.700302,207.590500 
	C108.199631,206.455490 105.669380,206.231033 102.924942,206.568527 
	C85.433983,208.719498 67.860115,209.967667 50.297157,211.363358 
	C41.773026,212.040726 33.136330,211.972610 24.555916,213.901321 
	C24.636042,214.929138 24.535942,215.623901 24.756863,216.194305 
	C34.246853,240.697861 43.777153,265.185822 53.261887,289.691376 
	C54.191994,292.094482 55.792866,292.905273 58.284515,292.734344 
	C67.044212,292.133392 74.731911,294.812378 81.116356,300.827423 
	C83.291817,302.877045 85.066200,302.552338 87.283142,301.085907 
	C91.028984,298.608215 94.894646,296.311615 98.710854,293.940369 
	C118.640678,281.556641 138.577515,269.184204 158.491852,256.775574 
	C160.831451,255.317764 163.728912,254.176285 162.084702,250.291977 
	C159.880112,245.083832 159.816544,239.626816 160.954483,233.375931 
M254.088074,349.563232 
	C258.889984,345.979980 263.652863,342.342682 268.510254,338.836334 
	C270.934082,337.086700 271.531769,335.290192 269.999359,332.514374 
	C266.764435,326.654694 266.864502,320.294800 268.407288,314.056763 
	C270.330597,306.280151 270.540558,306.332367 264.156097,301.450531 
	C263.891693,301.248352 263.641998,301.026947 263.377258,300.825256 
	C247.091904,288.418152 230.809372,276.007385 214.514832,263.612396 
	C212.537567,262.108337 210.555862,260.195160 207.884552,262.302551 
	C203.179108,266.014679 197.706375,267.872925 191.924240,268.952759 
	C189.562546,269.393768 188.655121,270.804504 188.341721,273.053192 
	C187.057953,282.264709 185.705688,291.466949 184.326859,300.664856 
	C180.116302,328.752411 175.956161,356.847931 171.586639,384.910828 
	C170.818436,389.844574 170.741547,393.646057 176.791016,394.952240 
	C178.617767,395.346680 180.407730,396.759247 181.800446,398.127075 
	C184.184677,400.468658 185.927856,400.179260 188.559540,398.205658 
	C210.131882,382.027588 231.839890,366.030457 254.088074,349.563232 
M235.230179,271.236908 
	C246.879852,280.121521 258.596863,288.920013 270.137207,297.944458 
	C273.498199,300.572723 276.131744,301.253540 279.680756,298.152374 
	C283.792450,294.559570 289.030273,292.643127 294.427185,292.858154 
	C299.570953,293.063049 301.415924,290.757965 302.600677,286.294800 
	C305.970673,273.598785 309.672607,260.991119 313.201538,248.336899 
	C316.773712,235.527618 320.255280,222.692886 323.871429,209.896133 
	C324.627960,207.218964 324.169525,205.469604 321.463531,204.308548 
	C317.554779,202.631439 314.470764,199.797760 311.835266,196.531540 
	C309.947144,194.191513 307.933624,193.891907 305.260284,195.114609 
	C299.812988,197.606079 294.286255,199.925354 288.775970,202.277405 
	C267.041199,211.554779 245.326630,220.880493 223.536865,230.026993 
	C219.634094,231.665207 217.609589,233.517105 218.669800,238.195007 
	C219.684616,242.672485 218.479248,247.254700 216.345291,251.226562 
	C214.354889,254.931244 215.541397,256.784058 218.622787,258.896820 
	C224.111008,262.659790 229.330933,266.814056 235.230179,271.236908 
M293.386444,408.740387 
	C314.454712,406.355164 335.293945,402.716187 355.787872,398.009003 
	C355.919495,396.006805 354.968414,395.210693 354.232635,394.348572 
	C341.158966,379.028931 327.994354,363.785797 315.054260,348.354370 
	C312.939301,345.832214 311.366913,346.111115 308.730743,347.176514 
	C298.665161,351.244537 288.713470,350.809448 279.815369,344.345825 
	C276.306549,341.796997 274.314911,342.446747 271.289215,344.714355 
	C245.854599,363.776306 220.298447,382.676025 194.821564,401.681824 
	C192.822128,403.173370 189.392532,404.131897 190.139801,407.371979 
	C190.976120,410.998138 194.792480,409.703003 197.314468,410.542053 
	C197.467957,410.593109 197.644470,410.578308 197.810623,410.587463 
	C229.411697,412.325439 260.987640,412.739227 293.386444,408.740387 
M185.393066,188.968430 
	C196.241928,189.247299 206.883347,187.243378 217.340668,184.961014 
	C237.602081,180.538864 258.196045,177.565155 278.074585,171.427475 
	C284.669708,169.391190 291.070953,166.984650 296.643707,162.372192 
	C294.878204,159.984070 292.721436,159.059570 290.692871,157.985733 
	C279.523315,152.072906 268.308350,146.244888 257.174988,140.264832 
	C235.776794,128.771255 214.393677,117.248619 193.082016,105.595901 
	C189.875870,103.842842 187.535645,103.540710 184.840683,106.473511 
	C182.010757,109.553169 178.378601,111.731270 174.372757,113.060989 
	C172.363770,113.727875 171.244781,114.497292 171.715912,116.940712 
	C176.307632,140.754578 179.704559,164.788193 185.393066,188.968430 
M360.287201,206.235947 
	C359.511383,205.606461 358.600983,205.087082 357.981537,204.329712 
	C353.804749,199.223343 350.379730,203.440582 346.748108,205.170639 
	C343.011871,206.950546 344.608917,209.805771 345.243286,212.492783 
	C350.933319,236.595505 356.565552,260.712036 362.324249,284.798309 
	C364.041718,291.981842 365.267120,299.321381 367.890991,306.438354 
	C371.502045,305.805176 374.604248,305.283020 377.698090,304.715210 
	C396.013763,301.353760 414.334198,298.017181 432.632721,294.564911 
	C434.741577,294.167023 437.538849,294.280792 437.718994,290.904541 
	C438.007751,285.492432 439.944214,280.559601 442.748871,275.336853 
	C415.397705,252.418121 388.113220,229.555252 360.287201,206.235947 
M410.646484,46.877586 
	C406.931061,44.346104 403.153076,41.900215 399.524658,39.249649 
	C397.487091,37.761223 395.833344,37.467396 393.803864,39.293297 
	C388.548920,44.021061 382.250610,46.588318 375.257111,47.018517 
	C372.048553,47.215893 371.024780,48.811863 370.337372,51.496006 
	C365.137451,71.799484 359.876984,92.087479 354.613770,112.374687 
	C352.692200,119.781433 350.725250,127.176498 348.748474,134.568726 
	C348.290710,136.280655 348.175262,137.940109 349.664917,139.155380 
	C351.196228,140.404617 352.764435,139.769867 354.313416,138.949677 
	C357.248688,137.395416 360.168457,135.792938 363.196655,134.438522 
	C366.117950,133.131882 369.065613,131.650696 372.830841,132.795258 
	C364.969940,140.808914 353.783295,143.661301 344.613708,149.901123 
	C352.155823,156.535873 353.891266,156.546539 360.006592,150.357208 
	C385.983795,124.065491 411.957642,97.770470 437.919739,71.463837 
	C438.931549,70.438568 440.363892,69.608421 440.064880,67.408791 
	C430.593628,60.792152 420.917786,54.032597 410.646484,46.877586 
M430.251892,362.825470 
	C430.789001,361.606140 431.300537,360.374817 431.867188,359.169403 
	C437.819305,346.507202 443.715088,333.817749 449.782990,321.211151 
	C451.367889,317.918335 451.566528,315.558716 448.074493,313.264374 
	C444.550446,310.948944 442.196442,307.394684 440.489868,303.518219 
	C439.511719,301.296356 438.294128,300.110413 435.527893,300.638672 
	C415.109192,304.538177 394.679108,308.382721 374.217377,312.048004 
	C370.141663,312.778076 369.087860,314.155609 370.127808,318.386322 
	C374.848907,337.592804 379.099945,356.914459 383.750946,376.138824 
	C384.895050,380.867828 385.280212,385.918427 387.816589,390.240204 
	C398.129852,387.896698 408.010803,385.640106 417.898315,383.412476 
	C420.409576,382.846680 421.839569,381.248779 422.850128,378.953857 
	C425.132019,373.771759 427.564728,368.656067 430.251892,362.825470 
M242.957947,183.597458 
	C227.492615,186.760895 212.044479,190.011719 196.556198,193.058517 
	C185.332748,195.266357 185.417923,195.123199 187.752762,206.395996 
	C188.453262,209.778152 189.623901,211.474854 193.435760,211.831833 
	C201.582947,212.594803 208.413986,216.348282 213.153931,223.134262 
	C215.068024,225.874588 216.721527,226.263916 219.733994,224.955093 
	C247.053528,213.085632 274.421967,201.328125 301.819122,189.638763 
	C304.980499,188.289932 306.595581,186.815002 305.880829,182.955811 
	C305.287903,179.754562 305.522095,176.283218 306.007202,173.023407 
	C307.033081,166.130188 306.375488,165.465958 299.896301,167.614624 
	C281.432190,173.737717 262.744476,179.075974 242.957947,183.597458 
M344.039795,235.261536 
	C342.197632,227.321350 340.414551,219.366638 338.467804,211.452179 
	C338.033295,209.685577 338.029114,207.351929 334.993195,207.467941 
	C332.201447,207.574631 330.863770,208.803482 330.127441,211.445679 
	C322.803314,237.727524 315.439178,263.998535 307.949432,290.233490 
	C307.132477,293.095123 307.819092,294.436188 310.408020,295.671997 
	C316.652557,298.652740 321.341644,303.405701 323.868805,309.831818 
	C325.397217,313.718262 327.725922,314.118896 331.277527,313.391449 
	C339.260651,311.756348 347.250885,310.023224 355.323486,309.007050 
	C360.249695,308.386902 360.838013,306.459656 359.793152,302.121246 
	C354.496826,280.129944 349.439087,258.081177 344.039795,235.261536 
M323.478699,332.745453 
	C322.369263,336.105621 319.746460,338.554779 317.840729,341.665619 
	C332.721649,359.115295 347.507263,376.443359 362.273804,393.787689 
	C363.432281,395.148438 364.717285,396.116486 366.576935,395.589355 
	C371.007874,394.333466 375.695404,393.944092 380.620300,391.534271 
	C374.568909,365.897308 368.524170,340.288452 362.386841,314.287445 
	C352.263824,316.079926 342.835510,317.938904 333.340637,319.349762 
	C328.668640,320.044006 325.653259,321.615204 325.494965,326.873505 
	C325.442474,328.617950 324.406006,330.332764 323.478699,332.745453 
M106.038727,393.369293 
	C116.455261,396.370209 126.684250,400.126007 138.643066,401.972504 
	C137.084946,399.998596 136.402084,398.887573 135.490692,398.015259 
	C117.460396,380.758209 99.379715,363.553711 81.385223,346.259521 
	C79.343285,344.297028 77.639648,344.172760 75.227287,345.523712 
	C65.466370,350.989807 55.570271,350.881744 45.654076,345.839081 
	C44.511185,345.257904 43.218658,343.955322 42.025330,345.087555 
	C36.930672,349.921387 31.983137,354.910248 26.316656,360.498688 
	C52.534729,374.036835 78.542145,384.451782 106.038727,393.369293 
M455.038239,325.451111 
	C446.442261,343.758453 437.846283,362.065796 428.744202,381.451019 
	C452.511444,376.757233 475.302765,374.148682 499.141479,374.611542 
	C497.873688,371.393585 497.163300,369.375366 496.297150,367.426361 
	C490.279510,353.886353 484.029358,340.444763 478.293915,326.786743 
	C476.167206,321.722321 473.729919,318.637421 467.778168,320.254700 
	C466.548248,320.588898 465.005249,320.567627 463.820312,320.130585 
	C459.103729,318.391052 456.595856,320.353027 455.038239,325.451111 
M235.631042,420.960052 
	C231.991959,421.474854 228.352875,421.989655 224.713806,422.504425 
	C227.333344,423.595459 229.924393,423.719421 232.505402,423.953918 
	C257.352112,426.211243 282.196625,428.492706 307.042786,430.755951 
	C323.113434,432.219818 339.204681,433.486145 355.250610,435.182373 
	C365.634155,436.280060 365.605042,436.556335 370.428497,427.876190 
	C370.590393,427.584869 370.741028,427.286926 370.912140,427.001190 
	C375.422119,419.471069 375.422119,419.471558 369.630371,412.797607 
	C369.084534,412.168671 368.483643,411.575897 368.016235,410.892548 
	C366.119232,408.119171 363.742249,407.180206 360.304688,407.904297 
	C353.556000,409.325928 347.948853,413.339935 341.638641,415.769287 
	C336.748077,417.652130 332.325867,419.126129 327.292847,416.900787 
	C325.368164,416.049805 323.436310,416.854401 321.454590,417.112183 
	C311.410309,418.418579 301.587463,421.233490 291.318512,421.070160 
	C272.972748,420.778412 254.622375,420.775421 235.631042,420.960052 
M21.430292,206.163803 
	C23.167885,207.935837 25.356146,208.901520 27.745432,208.549652 
	C34.794144,207.511627 42.106495,208.397522 48.928970,205.848541 
	C52.641075,204.461639 56.183834,202.811584 60.291035,202.603012 
	C64.264168,202.401215 68.473015,203.108673 72.038002,200.202713 
	C72.858818,199.533615 74.722176,199.660995 75.922043,200.025894 
	C80.291710,201.354828 84.237953,200.509491 88.318298,198.132599 
	C86.431549,197.071381 84.776741,195.975143 82.992668,195.162796 
	C65.468651,187.183807 47.897758,179.307190 30.404554,171.261536 
	C26.795406,169.601578 24.116003,169.268982 21.585876,173.133194 
	C19.991686,175.567978 17.549713,177.571564 14.763493,178.834488 
	C11.668223,180.237503 11.290206,182.163895 12.787262,185.164032 
	C13.798837,187.191254 16.024546,189.321411 16.008953,190.855301 
	C15.951485,196.508835 19.599258,200.612015 21.430292,206.163803 
M157.539948,221.855347 
	C162.080215,224.851746 165.764862,224.516312 169.295547,219.860825 
	C171.011292,217.598526 173.857254,215.677887 176.577637,214.802750 
	C181.871140,213.099838 182.559662,209.850601 181.238861,205.226074 
	C180.784164,203.634079 180.478134,201.979568 180.300888,200.332443 
	C179.892593,196.538071 177.753113,195.997375 174.380157,196.524780 
	C161.259491,198.576370 148.067902,200.199142 134.987473,202.469910 
	C130.240891,203.293900 125.180748,202.293304 119.885590,204.712799 
	C132.688934,210.563629 144.762115,216.080795 157.539948,221.855347 
M404.317474,413.488190 
	C407.588623,412.203186 413.032776,401.848938 412.207916,398.863953 
	C411.610168,396.700897 410.141418,397.070892 408.707245,397.284637 
	C404.464233,397.917084 400.199768,398.470337 396.005707,399.350220 
	C390.496887,400.505951 389.983612,401.903778 391.179504,407.826508 
	C391.895569,411.372681 393.423218,412.983734 397.157593,412.703949 
	C399.260925,412.546448 401.418060,413.106750 404.317474,413.488190 
M374.667755,403.740448 
	C373.890625,404.535858 372.400452,405.200714 373.179199,406.534241 
	C375.106934,409.835266 377.408112,412.979248 380.539124,415.164185 
	C382.423615,416.479340 384.884796,415.373291 385.366821,413.324890 
	C386.142914,410.026947 385.181488,406.288330 383.219666,403.908203 
	C381.530060,401.858337 378.002960,401.427460 374.667755,403.740448 
M656.066101,417.287933 
	C655.708496,421.632294 657.987549,423.579498 662.053101,424.120819 
	C663.469604,421.621429 663.011841,419.080658 662.948975,416.664093 
	C662.875305,413.833893 663.746094,409.751038 659.492188,409.613403 
	C654.820862,409.462341 656.543335,413.775055 656.066101,417.287933 
M437.282776,79.747459 
	C435.901886,81.693878 433.608185,83.003159 432.753021,86.233871 
	C437.967438,86.539726 441.623962,84.380653 444.578857,81.028397 
	C446.526855,78.818420 446.476257,76.265678 444.281281,73.909164 
	C441.215332,74.804390 439.834747,77.457176 437.282776,79.747459 
z"/>
<path fill="#000000" opacity="1.000000" stroke="none" 
	d="
M915.706543,83.018494 
	C895.148865,82.509941 879.959045,91.946884 866.377319,107.414803 
	C884.827393,107.414803 902.306946,107.414803 919.331665,107.414803 
	C921.180481,110.011444 920.419189,111.912560 919.919556,114.271233 
	C915.694519,114.464722 911.425232,114.840355 907.157532,114.822510 
	C893.342346,114.764771 879.526184,114.641060 865.714111,114.359215 
	C862.378174,114.291145 860.046753,115.196373 858.276062,118.143532 
	C855.189209,123.281425 851.793579,128.232864 848.618347,133.319244 
	C847.881775,134.499268 846.360840,135.657898 847.447998,137.325302 
	C848.536133,138.994339 850.229553,139.651733 852.206726,139.470001 
	C861.357971,138.628784 870.528381,139.174042 879.689087,139.108200 
	C891.521240,139.023178 903.355286,139.047058 915.186951,139.173065 
	C917.439331,139.197037 920.447998,138.456665 920.479004,142.589188 
	C920.510498,146.790527 917.768555,146.366623 915.069031,146.365875 
	C897.736389,146.361053 880.403748,146.378738 863.071106,146.373688 
	C860.625488,146.372971 858.181152,146.297821 855.106506,147.278610 
	C864.213440,157.337082 874.816528,163.799561 887.115540,167.636047 
	C896.455994,170.549698 906.072693,171.139359 915.776672,170.996521 
	C918.468811,170.956894 920.853821,171.196350 920.443115,175.016647 
	C920.203857,177.241516 919.418030,178.257126 917.092285,178.335388 
	C893.371094,179.133682 871.817078,173.546555 854.057495,156.911865 
	C850.048645,153.156937 846.170532,149.225464 842.576965,145.076691 
	C839.996826,142.097977 836.621094,141.122284 833.614807,142.463470 
	C827.933167,144.998230 822.173584,144.017670 816.438965,144.128525 
	C809.363647,144.265305 802.343018,143.097977 795.338440,142.547256 
	C779.538635,141.305023 765.249939,146.920609 752.470703,156.265564 
	C737.655945,167.099091 726.927856,181.488678 717.375183,196.837372 
	C703.777710,218.685150 692.993225,241.952805 683.202148,265.701172 
	C682.695374,266.930389 682.282715,268.203583 681.913635,269.481537 
	C681.788269,269.915405 681.932617,270.427246 681.952515,270.874817 
	C683.675476,272.170349 685.574280,271.649780 687.339355,271.661133 
	C697.338684,271.725189 707.338684,271.664642 717.338135,271.715729 
	C724.966187,271.754669 729.394104,275.432556 729.968445,282.911469 
	C730.254578,286.636810 731.660950,287.290070 735.112976,287.747498 
	C744.104248,288.938873 750.372925,285.991699 754.858704,278.000305 
	C757.190796,273.845795 760.679626,270.308594 763.830994,266.652069 
	C772.172485,256.973419 782.817810,253.369080 795.544373,252.303085 
	C807.097656,251.335373 818.605469,250.409973 830.145630,250.824097 
	C838.841736,251.136154 847.412231,253.179321 856.242065,252.769470 
	C860.339111,252.579285 862.958862,251.471237 865.249756,248.018585 
	C873.914124,234.960587 884.938843,224.973877 901.066772,222.204590 
	C906.161316,221.329803 911.295837,220.844574 916.480591,220.892303 
	C919.020630,220.915665 920.610168,221.529510 920.485840,224.569565 
	C920.371033,227.378296 919.102905,228.386154 916.431396,228.297318 
	C911.595520,228.136490 906.787720,228.423508 902.010254,229.310791 
	C888.441650,231.830811 879.534119,240.372101 872.161804,251.316833 
	C874.593872,253.445175 876.852844,252.875946 878.933960,252.881882 
	C891.099976,252.916534 903.266174,252.848022 915.432312,252.852585 
	C917.879883,252.853500 920.638428,252.322342 920.526062,256.384766 
	C920.426697,259.974426 918.309692,260.256226 915.530945,260.245270 
	C903.031677,260.196014 890.531921,260.215363 878.032532,260.260254 
	C876.085571,260.267242 874.054565,259.828094 871.615051,261.205017 
	C876.900024,269.365906 883.514099,275.747589 892.117859,280.143951 
	C899.662903,283.999298 907.878357,283.980560 915.993958,284.582733 
	C918.366882,284.758789 920.747986,284.415802 920.594543,288.103821 
	C920.445190,291.694885 918.261902,291.938477 915.535339,291.983154 
	C893.736877,292.340210 876.883545,283.290375 865.045654,265.110718 
	C862.638550,261.413971 859.935974,259.749207 855.637939,260.323853 
	C854.001038,260.542694 852.303223,260.257660 850.644104,260.367645 
	C845.649231,260.698669 840.794250,261.362061 835.812744,262.420532 
	C825.696472,264.570068 814.803833,264.244019 804.531433,262.532318 
	C800.700012,261.893860 796.963135,260.539948 792.826172,260.706207 
	C782.853027,261.106964 775.506958,266.128876 769.478638,273.488129 
	C764.940918,279.027802 760.702393,284.811584 756.262390,290.432800 
	C755.259827,291.702026 754.591858,292.830688 755.371887,294.476532 
	C762.143250,308.764740 766.920837,323.976257 775.138000,337.588104 
	C779.493042,344.802216 785.317627,350.328033 793.936829,352.146912 
	C797.065063,352.807068 800.086487,353.142303 803.202637,351.719940 
	C806.161804,350.369293 809.465149,351.299225 812.594421,350.984650 
	C826.249573,349.612000 839.660278,352.818054 853.236572,353.163391 
	C859.720032,353.328308 863.944824,351.569672 867.688477,346.048645 
	C875.943665,333.874176 887.271423,325.648346 902.114441,323.230255 
	C907.021118,322.430878 912.050781,322.365417 917.029053,322.036255 
	C919.567993,321.868347 920.578674,323.114594 920.452759,325.695862 
	C920.334106,328.127747 919.510071,329.407745 916.893860,329.332764 
	C912.394226,329.203857 907.926575,329.487305 903.475281,330.317810 
	C889.874512,332.855316 880.088989,340.565491 872.838379,351.917236 
	C874.714600,354.206268 876.843201,353.616852 878.759949,353.624268 
	C891.092651,353.672028 903.425537,353.637878 915.758240,353.677643 
	C918.003052,353.684875 920.700195,353.098999 920.663269,356.859192 
	C920.630371,360.207703 918.744995,361.019562 915.811340,361.002655 
	C903.645447,360.932465 891.479004,360.928406 879.312927,360.961517 
	C877.216064,360.967255 874.996155,360.502808 873.050293,361.868591 
	C872.806152,364.052246 874.389099,365.234985 875.491882,366.606812 
	C885.145691,378.615540 897.424316,385.277954 913.103088,384.988342 
	C914.599304,384.960693 916.101135,385.070343 917.596069,385.177094 
	C920.162231,385.360352 920.951294,386.946106 920.789612,389.288971 
	C920.630859,391.589508 919.352295,392.267761 917.153381,392.370636 
	C897.843323,393.274048 881.309937,387.059540 870.072876,371.173096 
	C864.216858,362.894043 857.904053,359.937256 848.149963,360.750061 
	C839.141541,361.500793 830.380249,364.627258 821.165222,363.452728 
	C819.106384,363.190338 818.293945,364.791779 818.925720,366.855652 
	C822.627930,378.950134 825.442566,391.539215 832.572144,402.126160 
	C840.014709,413.177673 851.647400,417.404388 864.596680,417.611053 
	C881.425293,417.879639 898.261169,417.680908 915.093933,417.710815 
	C917.675415,417.715393 920.635986,416.995758 920.500854,421.411713 
	C920.373230,425.585205 917.632935,425.140930 914.952942,425.139374 
	C898.620178,425.129822 882.287292,425.151459 865.954651,425.103180 
	C859.585815,425.084351 853.355408,424.067291 847.300903,422.054565 
	C845.600647,421.489349 843.909851,420.609253 841.703552,422.185211 
	C845.118408,430.040375 850.312378,436.282593 857.345947,441.014618 
	C866.200562,446.971832 876.201904,449.313354 886.674622,449.621002 
	C895.999756,449.894867 905.339905,449.616577 914.671326,449.741425 
	C917.010681,449.772705 920.330688,448.384766 920.494995,452.951935 
	C920.650330,457.270325 917.952454,457.222290 914.921082,457.181854 
	C899.292419,456.973236 883.580200,458.199860 868.171692,454.330719 
	C867.250427,454.099426 866.224609,453.937134 865.003906,455.111084 
	C870.125427,461.610260 876.629822,466.371521 883.325256,470.901459 
	C893.086182,477.505371 903.915955,480.977203 915.651611,481.594360 
	C918.403320,481.739105 920.591919,481.934052 920.369812,485.641296 
	C920.133240,489.590363 917.415466,489.058350 914.981750,488.936432 
	C891.859985,487.777863 874.049255,476.168152 858.712341,459.962036 
	C835.363403,435.289734 820.925354,405.628479 812.063965,373.265167 
	C809.746277,364.800476 805.248718,361.619141 797.642334,360.989777 
	C782.817017,359.763062 772.711853,351.942017 765.754578,339.184052 
	C759.273071,327.298523 754.486816,314.674438 749.356873,302.210510 
	C747.509033,297.720734 745.204651,295.290802 740.178162,296.050354 
	C738.550049,296.296356 736.843262,296.172546 735.186096,296.043396 
	C732.077332,295.801178 730.409302,296.743866 729.720093,300.194122 
	C728.436829,306.618011 724.348694,309.992371 717.716675,310.013794 
	C688.051758,310.109711 658.385315,310.119904 628.721252,309.911682 
	C620.576294,309.854553 616.670593,305.346985 616.573303,297.266266 
	C616.523132,293.102509 616.404114,288.939575 616.313599,284.776337 
	C616.130798,276.373962 620.603333,271.752991 629.116028,271.714813 
	C640.448730,271.663940 651.795166,271.379944 663.109314,271.841980 
	C668.822449,272.075287 671.642212,270.287445 673.809021,264.865356 
	C683.584412,240.403717 694.643738,216.515640 708.384949,193.982010 
	C717.352417,179.276566 727.576599,165.573975 740.787598,154.255188 
	C754.246582,142.723877 769.516418,136.031677 787.275940,134.390060 
	C799.952759,133.218277 812.535217,131.070908 825.334839,131.880356 
	C826.830078,131.974930 828.380798,131.802399 829.815979,132.137909 
	C838.964722,134.276749 839.056702,134.370789 843.689026,126.437782 
	C850.956970,113.991287 859.209351,102.353050 870.204468,92.863213 
	C883.304504,81.556564 898.225708,75.061943 915.806335,75.645561 
	C917.803589,75.711853 920.348877,74.850548 920.471680,78.434776 
	C920.580078,81.597290 919.337158,83.120705 915.706543,83.018494 
z"/>
<path fill="#000000" opacity="1.000000" stroke="none" 
	d="
M685.447021,101.933624 
	C680.010498,100.544716 677.611328,97.140915 677.313965,92.087547 
	C677.011047,86.939270 676.535583,81.771355 677.563477,76.661171 
	C678.668518,71.167717 682.789490,68.263779 688.479675,68.763245 
	C693.782776,69.228737 697.130005,72.791458 697.295166,78.369980 
	C697.413330,82.362129 697.351746,86.360817 697.314941,90.356079 
	C697.239868,98.505539 694.098999,101.682327 685.447021,101.933624 
M690.766174,78.105644 
	C690.668762,75.788696 689.746033,74.249977 687.153320,74.350754 
	C684.897705,74.438423 683.698914,76.019409 683.612793,77.890701 
	C683.383911,82.868080 683.342468,87.871582 683.598999,92.845482 
	C683.706909,94.937790 685.214050,96.661919 687.631714,96.404366 
	C689.773865,96.176155 690.663940,94.508476 690.695862,92.467316 
	C690.766174,87.973221 690.772766,83.478134 690.766174,78.105644 
z"/>
<path fill="#000000" opacity="1.000000" stroke="none" 
	d="
M578.182861,333.036407 
	C581.357483,339.405029 580.591919,345.740936 579.296997,351.904724 
	C578.424011,356.059906 574.912903,357.607300 570.819702,357.224609 
	C566.837524,356.852325 564.228882,354.422089 563.881104,350.548065 
	C563.466003,345.924103 563.409668,341.198059 563.867249,336.582581 
	C564.501221,330.187561 573.421753,327.930664 578.182861,333.036407 
M568.445557,343.775848 
	C568.570068,345.905243 568.508057,348.068024 568.880859,350.153046 
	C569.156982,351.697754 570.289307,352.801819 572.096436,352.569061 
	C573.623596,352.372345 574.502319,351.298218 574.539246,349.880219 
	C574.646606,345.762299 574.677490,341.636841 574.541016,337.520905 
	C574.485107,335.833801 573.202332,334.810242 571.532410,334.842865 
	C569.977844,334.873230 569.305908,336.089478 569.118286,337.520538 
	C568.882507,339.319244 568.698975,341.124786 568.445557,343.775848 
z"/>
<path fill="#000000" opacity="1.000000" stroke="none" 
	d="
M708.480652,101.422836 
	C705.827881,98.449333 707.064697,95.176880 706.930542,92.129959 
	C706.734375,87.671875 706.880127,83.198738 706.880127,78.982475 
	C704.938049,77.636246 703.826538,80.030258 701.471680,78.593773 
	C700.543945,77.750404 700.749023,75.859238 702.100159,74.501427 
	C703.953491,72.638824 706.058289,70.843735 708.386108,69.683281 
	C711.124512,68.318115 713.297668,69.091713 713.296448,72.751198 
	C713.293457,81.219093 713.263977,89.687202 713.318298,98.154762 
	C713.338867,101.370056 711.735962,102.243767 708.480652,101.422836 
z"/>
<path fill="#000000" opacity="1.000000" stroke="none" 
	d="
M583.137268,336.241943 
	C585.452515,333.489624 587.783569,329.969604 591.202087,331.155060 
	C594.912964,332.441895 592.928650,336.653625 593.101685,339.562836 
	C593.376465,344.181000 593.167969,348.829865 593.105774,353.464996 
	C593.083008,355.164062 592.917847,356.946716 590.629333,357.055145 
	C588.022522,357.178619 587.781860,355.280975 587.769348,353.361023 
	C587.737976,348.570068 587.758972,343.778809 587.758972,339.041809 
	C586.335876,337.592743 582.750427,340.706482 583.137268,336.241943 
z"/>
<path fill="#000000" opacity="1.000000" stroke="none" 
	d="
M949.424194,250.972321 
	C949.646362,254.176651 950.026062,256.995422 949.818237,259.770172 
	C949.565186,263.146637 947.615845,265.287506 944.010376,265.261597 
	C940.438782,265.235962 938.554810,263.100647 938.134216,259.751740 
	C937.868164,257.633484 937.951233,255.458862 938.019470,253.314026 
	C938.117432,250.232635 939.338806,247.725784 942.556396,247.005463 
	C945.658264,246.311066 948.068542,247.476135 949.424194,250.972321 
M945.735046,255.677521 
	C945.407959,253.934784 946.603333,251.556839 943.777039,250.797791 
	C941.360168,254.951477 941.590759,258.991058 944.356384,261.431671 
	C946.369995,260.222015 945.471069,258.196777 945.735046,255.677521 
z"/>
<path fill="#000000" opacity="1.000000" stroke="none" 
	d="
M932.700745,348.135956 
	C937.362244,350.949615 939.112488,360.595276 935.951904,364.502350 
	C933.799927,367.162598 930.838379,367.429352 928.428772,365.420502 
	C924.535217,362.174591 925.749512,357.490723 926.209412,353.274536 
	C926.578857,349.888794 928.662720,347.900909 932.700745,348.135956 
M931.583313,352.647156 
	C929.329041,355.907654 929.927979,359.068298 931.911987,362.208557 
	C933.961060,359.089417 934.624084,355.945465 931.583313,352.647156 
z"/>
<path fill="#000000" opacity="1.000000" stroke="none" 
	d="
M925.841797,325.066284 
	C926.041809,323.157837 926.095337,321.646790 926.476990,320.223755 
	C927.221985,317.446381 929.247742,316.097321 932.036743,316.254761 
	C934.851196,316.413635 936.720337,318.130646 937.110352,320.870117 
	C937.457581,323.308411 937.358276,325.828949 937.268677,328.306396 
	C937.140320,331.855957 935.629578,334.577728 931.735352,334.646942 
	C927.819336,334.716583 926.315369,332.026642 926.016357,328.480255 
	C925.932861,327.490143 925.899902,326.495819 925.841797,325.066284 
M930.585938,321.756134 
	C930.316162,324.705841 929.194702,327.778412 931.621094,330.547882 
	C934.853027,326.689667 934.451477,322.170563 930.585938,321.756134 
z"/>
<path fill="#000000" opacity="1.000000" stroke="none" 
	d="
M935.908691,460.450134 
	C930.390137,464.007599 926.642578,462.352753 925.985779,456.413788 
	C925.695129,453.785919 925.678833,451.130585 926.365112,448.531647 
	C927.149170,445.562347 929.171814,443.961975 932.149780,444.178223 
	C934.899231,444.377869 936.838745,446.208313 937.090637,448.937714 
	C937.435730,452.677002 938.017822,456.531281 935.908691,460.450134 
M930.166077,452.637390 
	C930.426880,454.583191 929.405396,456.941589 932.463074,458.704712 
	C934.090942,454.948517 934.346008,451.776642 932.408508,448.468597 
	C930.002075,449.108978 930.372437,450.616547 930.166077,452.637390 
z"/>
<path fill="#000000" opacity="1.000000" stroke="none" 
	d="
M932.691528,119.860962 
	C928.629944,120.123108 926.609436,118.122284 926.257690,114.713264 
	C925.820251,110.472763 924.766907,105.745369 928.679626,102.617729 
	C931.076111,100.702141 934.141663,101.187416 936.184570,103.876656 
	C939.126465,107.749191 937.236511,117.084435 932.691528,119.860962 
M930.587830,106.766685 
	C930.304932,109.733665 929.144409,112.824989 931.605347,115.611961 
	C934.859314,111.788818 934.463562,107.174049 930.587830,106.766685 
z"/>
<path fill="#000000" opacity="1.000000" stroke="none" 
	d="
M925.978394,144.651367 
	C926.019043,142.403976 925.928101,140.566055 926.174744,138.774612 
	C926.650208,135.321747 928.578796,133.448654 932.253418,133.706604 
	C935.755249,133.952454 937.144897,136.066910 937.270020,139.292557 
	C937.334167,140.945724 937.275635,142.603333 937.291748,144.258743 
	C937.329407,148.124390 936.258545,151.450089 931.807495,151.671951 
	C927.531555,151.885101 926.346008,148.691772 925.978394,144.651367 
M930.484253,146.420776 
	C931.133240,147.440369 932.411255,147.907043 932.840759,146.857239 
	C934.122070,143.724915 934.588562,140.479431 931.997253,137.183105 
	C930.057007,140.609161 930.057007,140.609161 930.484253,146.420776 
z"/>
<path fill="#000000" opacity="1.000000" stroke="none" 
	d="
M937.224365,252.448456 
	C937.221558,255.377518 937.420593,257.895386 937.087402,260.340729 
	C936.689819,263.258728 934.926025,265.114960 931.770203,265.273071 
	C928.552429,265.434326 926.693054,263.690430 926.205994,260.747223 
	C925.804321,258.320282 925.799255,255.790924 925.925171,253.322601 
	C926.089600,250.099457 927.321533,247.299744 930.965698,246.946793 
	C934.464539,246.607971 936.545837,248.555603 937.224365,252.448456 
M930.419495,260.292450 
	C930.905823,261.072662 931.591736,261.631165 932.406189,260.916809 
	C934.769470,258.844147 933.986023,252.849014 930.919800,250.856400 
	C929.626892,253.735443 930.181396,256.680756 930.419495,260.292450 
z"/>
<path fill="#000000" opacity="1.000000" stroke="none" 
	d="
M928.954590,476.852966 
	C934.307739,475.691528 936.868164,477.291534 937.230530,481.954254 
	C937.435303,484.589813 937.451965,487.326874 936.962952,489.906342 
	C936.416016,492.791199 934.430786,494.487091 931.224670,494.339722 
	C928.204651,494.200836 926.540466,492.402832 926.246887,489.689087 
	C925.771790,485.296997 924.697632,480.666412 928.954590,476.852966 
M930.213440,484.603210 
	C930.482361,486.543976 929.421875,488.906677 931.818848,490.326630 
	C934.248962,487.002716 934.343750,484.350922 932.295105,480.540802 
	C930.064270,480.656403 930.424500,482.408142 930.213440,484.603210 
z"/>
<path fill="#000000" opacity="1.000000" stroke="none" 
	d="
M936.706421,72.819702 
	C937.573425,76.486366 937.567505,79.809952 936.988403,83.061920 
	C936.481995,85.905113 934.674500,87.966705 931.616394,88.013687 
	C928.520325,88.061264 926.859314,86.059616 926.283630,83.132881 
	C925.768005,80.511391 925.768738,77.871399 926.216553,75.243172 
	C926.624084,72.851395 927.516968,70.701721 930.107605,69.994743 
	C932.761536,69.270515 935.015442,69.947418 936.706421,72.819702 
M932.348572,73.830925 
	C928.135986,76.729805 930.485596,80.103409 931.497620,83.398872 
	C934.702698,80.689980 933.898438,77.447426 932.348572,73.830925 
z"/>
<path fill="#000000" opacity="1.000000" stroke="none" 
	d="
M931.955322,183.958954 
	C925.920532,181.905640 923.538147,170.841202 928.065125,167.008148 
	C930.707153,164.771103 933.748413,165.055801 936.064087,167.646820 
	C939.453552,171.439392 937.043945,181.525879 931.955322,183.958954 
M932.337158,169.794662 
	C928.074097,172.841721 930.552002,176.383408 931.471985,179.830246 
	C934.552124,176.943726 933.927979,173.571823 932.337158,169.794662 
z"/>
<path fill="#000000" opacity="1.000000" stroke="none" 
	d="
M930.333008,430.173340 
	C925.649109,427.087341 924.322876,417.640381 927.637024,413.828308 
	C930.128845,410.962158 934.774902,411.256622 936.324463,414.805695 
	C938.151245,418.989471 937.949646,423.515228 936.184082,427.766602 
	C935.229614,430.065125 933.040161,430.467377 930.333008,430.173340 
M930.563477,416.993164 
	C930.389709,420.184052 929.064270,423.592773 931.992615,426.703979 
	C933.496826,423.886719 934.071594,420.338989 933.615234,418.223297 
	C933.300293,416.763275 932.827576,415.601929 930.563477,416.993164 
z"/>
<path fill="#000000" opacity="1.000000" stroke="none" 
	d="
M935.544312,295.399292 
	C930.018250,298.271912 926.742554,296.767334 925.997009,291.298645 
	C925.591248,288.322327 925.591614,285.304504 926.627747,282.408234 
	C927.526672,279.895630 929.421265,278.680084 932.020813,278.862518 
	C934.570068,279.041443 936.783813,280.398956 937.025635,282.953339 
	C937.410156,287.015289 938.271118,291.261505 935.544312,295.399292 
M930.209473,290.732452 
	C930.420349,292.371643 930.722107,294.154358 932.822571,292.304230 
	C934.688721,290.660492 933.704773,284.754822 931.349915,282.874939 
	C929.397888,284.994232 930.442688,287.597504 930.209473,290.732452 
z"/>
<path fill="#000000" opacity="1.000000" stroke="none" 
	d="
M928.191711,396.948303 
	C924.828125,392.498657 925.468262,387.928772 926.747009,383.440338 
	C927.442993,380.997650 929.522827,379.706726 932.091675,379.876007 
	C934.652893,380.044830 936.644287,381.605530 936.950256,384.080048 
	C937.350769,387.319550 937.475708,390.712646 936.956299,393.915985 
	C936.314148,397.876312 933.197876,398.887848 928.191711,396.948303 
M931.062378,384.318085 
	C929.951538,387.761963 929.172485,391.161957 932.353149,394.061920 
	C933.363403,390.605042 935.496765,387.093689 931.062378,384.318085 
z"/>
<path fill="#000000" opacity="1.000000" stroke="none" 
	d="
M937.211670,220.507721 
	C937.149536,223.575943 937.335083,226.259216 936.887451,228.832321 
	C936.428162,231.472153 934.715515,233.239807 931.734131,233.247803 
	C928.796814,233.255661 927.179810,231.639420 926.457397,228.957489 
	C925.758362,226.362289 925.807007,223.731659 926.200317,221.094299 
	C926.650024,218.078354 927.777832,215.683090 931.295898,215.409332 
	C934.710083,215.143616 936.523010,216.875000 937.211670,220.507721 
M933.628967,226.843796 
	C933.145386,224.238129 935.142761,220.911652 931.275452,218.891663 
	C929.609070,221.883881 929.843445,224.941116 930.450989,227.692184 
	C931.068848,230.489929 932.538818,229.553375 933.628967,226.843796 
z"/>
<path fill="#000000" opacity="1.000000" stroke="none" 
	d="
M947.717407,365.744690 
	C943.234253,367.112671 941.546021,365.436401 941.761902,361.183380 
	C941.917908,358.108826 942.590149,354.727295 939.083496,353.181671 
	C938.991028,350.918335 940.497192,350.217194 941.661194,349.384857 
	C944.420288,347.412048 945.972534,348.140991 946.069885,351.602936 
	C946.202087,356.306274 945.430664,361.134613 947.717407,365.744690 
z"/>
<path fill="#000000" opacity="1.000000" stroke="none" 
	d="
M939.802734,281.748688 
	C941.417664,280.374664 942.615234,278.359283 944.617676,279.288727 
	C946.577209,280.198242 945.969055,282.462616 946.020752,284.205170 
	C946.113647,287.333313 946.082214,290.467743 946.006409,293.597168 
	C945.970215,295.089935 945.830627,296.842285 943.763672,296.740417 
	C942.071411,296.657013 941.600525,295.008453 941.913452,293.782379 
	C943.027161,289.418915 940.232788,285.943634 939.802734,281.748688 
z"/>
<path fill="#000000" opacity="1.000000" stroke="none" 
	d="
M946.045776,326.886688 
	C945.420776,329.666962 947.669495,333.860168 944.055969,333.985260 
	C940.206726,334.118469 941.956909,329.865631 941.883850,327.579590 
	C941.794983,324.793365 941.458618,322.466614 938.872192,321.336761 
	C938.995422,319.172241 940.439880,318.432281 941.609192,317.587860 
	C943.981262,315.874817 945.732422,316.220428 945.975891,319.447235 
	C946.150574,321.761963 946.033264,324.098724 946.045776,326.886688 
z"/>
<path fill="#000000" opacity="1.000000" stroke="none" 
	d="
M939.706055,72.677002 
	C941.223328,71.388763 942.319275,70.076851 944.079651,69.965256 
	C945.823669,72.467918 946.765808,84.508865 945.364990,86.567505 
	C945.036499,87.050240 944.412781,87.519478 943.857727,87.618492 
	C942.931580,87.783722 942.238953,87.105789 942.105347,86.254425 
	C941.876587,84.796669 941.838013,83.306511 941.763123,81.827759 
	C941.636902,79.334496 942.532104,76.533478 939.205322,75.154282 
	C938.512573,74.867096 938.949280,73.655052 939.706055,72.677002 
z"/>
<path fill="#000000" opacity="1.000000" stroke="none" 
	d="
M944.008362,429.937073 
	C940.979370,428.417633 941.888000,425.850159 941.878418,423.683044 
	C941.866333,420.953064 941.781372,418.419739 938.977478,417.249512 
	C939.248840,414.547241 941.205505,413.715881 942.772217,412.614410 
	C943.880676,411.835175 945.544922,412.029327 945.594055,413.304504 
	C945.808838,418.872467 947.711792,424.610443 944.008362,429.937073 
z"/>
<path fill="#000000" opacity="1.000000" stroke="none" 
	d="
M946.013062,453.055298 
	C946.003662,455.012360 946.089172,456.510132 945.961182,457.989471 
	C945.828125,459.527588 946.338440,461.794525 944.000183,461.865326 
	C941.673950,461.935791 941.965149,459.718903 941.822632,458.135468 
	C941.734009,457.150116 941.735413,456.145416 941.813049,455.158539 
	C942.019958,452.528412 941.428650,450.287842 939.027649,449.267578 
	C938.808105,447.229523 940.088257,446.568298 941.099976,445.772736 
	C942.128906,444.963593 943.232788,443.934937 944.649048,444.618774 
	C946.061829,445.300873 945.944641,446.807800 945.989990,448.119263 
	C946.041443,449.607330 946.009644,451.098236 946.013062,453.055298 
z"/>
<path fill="#000000" opacity="1.000000" stroke="none" 
	d="
M946.001526,144.786667 
	C945.605774,147.342529 947.079346,151.001938 944.116150,151.071365 
	C940.539978,151.155121 942.061707,147.337402 941.866028,145.154419 
	C941.621277,142.423691 942.263062,139.479095 938.856018,138.490524 
	C939.141174,136.149933 940.771484,135.426834 942.111938,134.558380 
	C944.235779,133.182373 945.658875,133.937485 945.853577,136.389862 
	C946.062683,139.023743 945.965393,141.681946 946.001526,144.786667 
z"/>
<path fill="#000000" opacity="1.000000" stroke="none" 
	d="
M945.807922,492.415039 
	C941.905945,495.878113 942.144653,492.420715 941.893494,490.347870 
	C941.475403,486.897919 942.829224,482.975983 938.916992,480.947235 
	C939.156128,478.826904 940.584106,478.103424 941.811523,477.351410 
	C944.326050,475.810852 945.996155,476.412506 946.034241,479.567749 
	C946.084229,483.706421 945.968872,487.847046 945.807922,492.415039 
z"/>
<path fill="#000000" opacity="1.000000" stroke="none" 
	d="
M944.245728,102.022484 
	C947.561523,107.217392 945.690125,112.688873 945.716553,118.018547 
	C945.720764,118.858932 944.881592,119.409088 943.912231,119.350426 
	C942.963135,119.292984 942.316528,118.721451 942.171448,117.857452 
	C941.952942,116.555519 941.916443,115.221046 941.835754,113.898376 
	C941.662598,111.059341 942.811157,107.714302 938.513123,106.993477 
	C939.701172,103.919914 941.581848,102.724907 944.245728,102.022484 
z"/>
<path fill="#000000" opacity="1.000000" stroke="none" 
	d="
M943.566650,380.282227 
	C945.703552,380.310272 946.104919,381.550873 946.118286,382.973633 
	C946.155823,386.968079 946.160339,390.963531 946.108337,394.957672 
	C946.090698,396.313446 945.877380,397.830719 944.090210,397.826721 
	C942.314392,397.822754 942.137207,396.268372 942.029907,394.944611 
	C941.909119,393.455017 941.798889,391.930450 941.981384,390.457947 
	C942.302795,387.864807 941.459656,386.020508 938.951843,385.226288 
	C939.291809,382.356995 941.460999,381.565186 943.566650,380.282227 
z"/>
<path fill="#000000" opacity="1.000000" stroke="none" 
	d="
M941.895996,181.316559 
	C941.243103,177.276245 943.521729,172.864349 938.896790,170.559998 
	C939.087952,168.380219 940.709778,167.605957 942.003174,166.679977 
	C944.035461,165.224991 945.654663,165.829468 945.778564,168.333191 
	C945.991089,172.627869 946.189819,176.979187 945.721985,181.232773 
	C945.386047,184.287582 943.602783,184.385147 941.895996,181.316559 
z"/>
<path fill="#000000" opacity="1.000000" stroke="none" 
	d="
M945.963257,224.034943 
	C945.897156,226.658875 945.906921,228.820297 945.726562,230.965729 
	C945.643250,231.957840 945.158264,232.939529 943.895447,232.926620 
	C942.687195,232.914261 942.145996,232.035721 941.991028,231.008698 
	C941.818542,229.865921 941.720459,228.682785 941.811890,227.534897 
	C942.052612,224.515533 941.971741,221.671417 938.619995,220.226364 
	C940.061462,217.527634 941.758240,215.957382 944.590149,215.890976 
	C946.612000,218.230652 945.716675,221.002853 945.963257,224.034943 
z"/>
<path fill="#000000" opacity="1.000000" stroke="none" 
	d="
M402.685974,505.431946 
	C404.156952,498.891998 407.461212,496.269043 413.104858,496.722870 
	C418.472656,497.154541 421.912109,500.808838 422.170074,506.712982 
	C422.350952,510.853210 422.353546,515.015930 422.152863,519.154846 
	C421.831421,525.784058 417.946167,529.511719 411.836548,529.362427 
	C405.832184,529.215820 402.750397,525.707153 402.672058,518.825317 
	C402.622986,514.511414 402.668518,510.196381 402.685974,505.431946 
M408.404999,519.783020 
	C408.758606,522.477417 410.106689,524.231201 413.002899,523.730103 
	C415.830139,523.240967 415.768982,520.794250 415.792694,518.620117 
	C415.834290,514.804688 415.812653,510.988281 415.789490,507.172455 
	C415.774780,504.746765 415.645782,502.248291 412.344818,502.235596 
	C409.289948,502.223846 408.487885,504.486969 408.409760,506.974091 
	C408.284821,510.952057 408.367554,514.936523 408.404999,519.783020 
z"/>
<path fill="#000000" opacity="1.000000" stroke="none" 
	d="
M431.643494,509.642517 
	C431.557495,508.257935 431.473419,507.286713 431.403625,506.480255 
	C429.657593,505.143738 427.237640,508.612244 426.137634,505.443237 
	C425.179626,502.683350 427.473877,501.689270 429.148071,500.408112 
	C430.068787,499.703522 430.951996,498.938568 431.926514,498.317535 
	C435.561188,496.001373 437.763702,496.875183 437.883545,501.051483 
	C438.116302,509.160858 438.009674,517.280762 437.987396,525.396179 
	C437.981415,527.571411 437.393768,529.352051 434.608093,529.218872 
	C432.093872,529.098633 431.716125,527.427612 431.703491,525.459778 
	C431.670502,520.325256 431.663055,515.190552 431.643494,509.642517 
z"/>
<path fill="#000000" opacity="1.000000" stroke="none" 
	d="
M108.463226,495.180573 
	C116.785896,492.533173 121.997292,496.104126 122.227165,504.296509 
	C122.329506,507.944092 122.387970,511.617401 122.080444,515.246338 
	C121.617241,520.712341 118.080399,524.123596 113.219017,524.242981 
	C107.972244,524.371887 104.381897,521.146118 103.893806,515.297119 
	C103.549828,511.175171 103.654625,506.997620 103.830460,502.856415 
	C103.963196,499.730072 105.409447,497.134888 108.463226,495.180573 
M114.153244,499.310120 
	C111.833534,498.801605 109.825951,499.577881 109.677727,501.944763 
	C109.378548,506.722504 109.488007,511.538940 109.698074,516.327637 
	C109.763733,517.824463 110.986168,519.119568 112.646004,519.303223 
	C114.363663,519.493286 115.808754,518.306763 115.980103,516.871643 
	C116.671638,511.079773 118.158600,505.171143 114.153244,499.310120 
z"/>
<path fill="#000000" opacity="1.000000" stroke="none" 
	d="
M131.204102,522.310486 
	C131.053986,515.764587 131.053986,509.629974 131.053986,504.285828 
	C129.305801,501.892090 127.563904,504.228638 126.361099,502.763947 
	C126.114632,499.284119 131.457794,494.104034 134.674683,494.760345 
	C136.125717,495.056366 136.588913,496.002472 136.606339,497.246033 
	C136.713455,504.887909 136.942810,512.533691 136.787033,520.171204 
	C136.709900,523.953369 134.836166,525.428894 131.204102,522.310486 
z"/>
<path fill="#000000" opacity="1.000000" stroke="none" 
	d="
M222.694427,29.317093 
	C223.560608,22.721302 225.787369,20.294134 230.419342,20.449268 
	C234.927002,20.600235 237.232269,23.069124 237.840057,28.743027 
	C238.212280,32.217808 238.196640,35.721867 237.504333,39.179752 
	C236.657166,43.411087 234.054718,45.459045 229.747467,45.332577 
	C225.479019,45.207249 223.432312,42.509472 222.887375,38.740234 
	C222.462662,35.802467 222.728989,32.764801 222.694427,29.317093 
M227.557617,26.567259 
	C227.502747,30.558842 227.363312,34.551926 227.434265,38.541275 
	C227.463013,40.156933 228.361267,41.454281 230.200409,41.491833 
	C231.794724,41.524395 232.548080,40.406250 232.898788,39.012402 
	C233.892639,35.062653 233.998703,31.051888 232.914536,27.149837 
	C232.108841,24.249989 230.344910,23.273684 227.557617,26.567259 
z"/>
<path fill="#000000" opacity="1.000000" stroke="none" 
	d="
M241.184052,26.733528 
	C241.289413,25.929394 241.316025,25.281767 241.643814,25.036282 
	C243.804428,23.418135 245.523636,19.989902 248.588013,21.257999 
	C251.299408,22.380022 249.967331,25.695887 250.035706,28.052425 
	C250.170242,32.689678 250.077530,37.335953 249.973587,41.976139 
	C249.944321,43.283642 249.697556,44.801174 247.950455,44.906097 
	C245.781860,45.036335 245.716888,43.315735 245.669250,41.820652 
	C245.584778,39.170097 245.349548,36.483246 245.666428,33.870895 
	C246.112305,30.194973 244.637604,28.092524 241.184052,26.733528 
z"/>
<path fill="#000000" opacity="1.000000" stroke="none" 
	d="
M302.969788,88.823494 
	C309.524261,90.570900 311.257294,92.751930 311.323212,98.984047 
	C311.358246,102.296288 311.432343,105.616821 311.251801,108.920662 
	C310.962341,114.217941 307.460449,117.714745 302.474854,117.942596 
	C298.576111,118.120789 294.602081,114.885696 294.109467,110.244644 
	C293.623535,105.666214 293.602631,100.957870 294.080780,96.379967 
	C294.573944,91.658661 297.894165,89.275978 302.969788,88.823494 
M305.064148,112.045403 
	C306.695892,106.877380 305.813843,101.594620 305.719757,96.356934 
	C305.685272,94.438957 304.489990,93.292023 302.485382,93.430450 
	C300.547638,93.564262 299.439331,94.805084 299.396912,96.671356 
	C299.295654,101.124413 299.117981,105.597977 299.432129,110.030594 
	C299.650513,113.111923 301.438568,114.515900 305.064148,112.045403 
z"/>
<path fill="#000000" opacity="1.000000" stroke="none" 
	d="
M319.893005,96.585693 
	C318.339294,95.917114 317.273163,98.367508 315.677765,96.795135 
	C315.739075,94.014114 320.425659,89.008324 322.930786,89.167091 
	C324.970551,89.296379 325.242340,90.771896 325.245941,92.350754 
	C325.262634,99.664627 325.253632,106.978592 325.237946,114.292488 
	C325.234406,115.948898 324.786346,117.276466 322.746429,117.251419 
	C320.767731,117.227127 320.153168,115.871964 320.124451,114.275063 
	C320.019928,108.459831 320.025391,102.642624 319.893005,96.585693 
z"/>
<path fill="#000000" opacity="1.000000" stroke="none" 
	d="
M446.726013,206.536057 
	C447.960083,201.503784 451.013977,199.471115 455.618866,200.057724 
	C460.191315,200.640182 462.250702,203.472260 462.338745,208.907639 
	C462.392456,212.223495 462.455963,215.548004 462.284088,218.856628 
	C462.028381,223.779404 459.011566,226.721680 454.451477,226.766556 
	C449.886993,226.811478 446.869843,223.875977 446.688690,218.916214 
	C446.543579,214.942322 446.676025,210.958267 446.726013,206.536057 
M451.454285,219.461700 
	C452.022217,221.109924 452.824280,222.689102 454.891266,222.181671 
	C456.669373,221.745163 457.524445,220.196320 457.575684,218.432709 
	C457.671234,215.142303 457.649780,211.846191 457.583893,208.554321 
	C457.545013,206.611511 456.921570,204.701645 454.678040,204.646896 
	C452.115295,204.584351 451.513977,206.732162 451.426819,208.781601 
	C451.287018,212.069382 451.376770,215.366913 451.454285,219.461700 
z"/>
<path fill="#000000" opacity="1.000000" stroke="none" 
	d="
M475.444641,214.403046 
	C475.419617,217.352264 475.473389,219.847946 475.359894,222.335983 
	C475.288422,223.902084 475.651581,225.979828 473.177399,226.055603 
	C470.330627,226.142792 470.794312,223.845444 470.699829,222.118912 
	C470.591003,220.130188 470.809753,218.115753 470.603851,216.141937 
	C470.280334,213.040009 472.299591,208.789948 466.653229,208.084503 
	C465.489136,207.939072 465.436584,205.987244 466.178711,205.070953 
	C467.853973,203.002411 469.921539,201.251694 472.492615,200.406937 
	C474.668518,199.692001 475.425995,200.935181 475.560211,203.009674 
	C475.796600,206.663879 475.938934,210.304657 475.444641,214.403046 
z"/>
<path fill="#000000" opacity="1.000000" stroke="none" 
	d="
M82.347404,255.893860 
	C77.183769,254.673492 75.074890,251.313187 74.883324,246.733093 
	C74.710091,242.591217 74.350365,238.403763 75.333931,234.293503 
	C76.424217,229.737320 79.381088,227.555878 84.019760,227.731644 
	C88.742462,227.910583 91.604218,230.634979 92.032082,235.101151 
	C92.457718,239.544083 92.377975,244.122162 91.811470,248.550369 
	C91.174767,253.527466 87.782677,255.972229 82.347404,255.893860 
M86.691925,247.734375 
	C86.708008,243.940140 86.734268,240.145905 86.736267,236.351669 
	C86.737427,234.140427 86.102936,232.307159 83.467522,232.370560 
	C81.178452,232.425644 80.391014,234.087189 80.351730,236.083939 
	C80.277107,239.876877 80.319832,243.672180 80.318268,247.466492 
	C80.317528,249.257004 80.857880,250.880936 82.711426,251.359985 
	C84.930321,251.933441 86.033493,250.505219 86.691925,247.734375 
z"/>
<path fill="#000000" opacity="1.000000" stroke="none" 
	d="
M96.316757,232.500763 
	C99.081406,230.606339 101.171860,226.698944 104.488548,228.453232 
	C107.433968,230.011154 105.924324,233.904449 106.021400,236.772095 
	C106.189590,241.740616 106.078255,246.720413 106.006363,251.694351 
	C105.979652,253.542450 105.908363,255.515198 103.225220,255.490189 
	C100.411186,255.463928 100.732834,253.384811 100.722923,251.591919 
	C100.694656,246.475967 100.712982,241.359756 100.712982,236.231171 
	C98.547791,235.465302 94.418640,237.608780 96.316757,232.500763 
z"/>
<path fill="#000000" opacity="1.000000" stroke="none" 
	d="
M213.814514,336.176544 
	C207.602905,335.435425 205.215683,333.258545 204.879562,327.831970 
	C204.654663,324.201385 204.632843,320.503540 205.063782,316.900787 
	C205.608734,312.344879 209.075394,309.621521 213.251129,309.848297 
	C217.587830,310.083801 220.140213,312.861298 220.338745,317.810638 
	C220.471695,321.124786 220.299438,324.450439 220.399384,327.766846 
	C220.533661,332.221283 218.562210,335.025726 213.814514,336.176544 
M215.762024,326.960236 
	C215.741501,323.825775 215.746826,320.690857 215.689880,317.557037 
	C215.659943,315.909180 215.000153,314.594360 213.182907,314.439240 
	C211.053497,314.257446 210.191986,315.671326 210.124771,317.505249 
	C210.004059,320.799866 210.002579,324.102386 210.071472,327.399078 
	C210.109421,329.215637 210.179672,331.347443 212.642883,331.486206 
	C215.005508,331.619293 215.558716,329.771210 215.762024,326.960236 
z"/>
<path fill="#000000" opacity="1.000000" stroke="none" 
	d="
M233.059296,334.472351 
	C230.350464,336.825134 228.872650,336.014069 228.728592,332.993652 
	C228.547546,329.198151 228.494980,325.381897 228.675568,321.588348 
	C228.825317,318.442444 227.951187,316.777313 224.515442,317.823669 
	C224.426956,314.428955 228.637161,309.976318 231.297379,310.357300 
	C233.716751,310.703766 233.321976,312.638641 233.323135,314.207458 
	C233.328033,320.819733 233.252182,327.432068 233.059296,334.472351 
z"/>
</svg>